<svg width="156" height="156" viewBox="0 0 156 156" fill="none" xmlns="http://www.w3.org/2000/svg">
<path d="M66.9022 3.67926C74.008 0.735933 81.992 0.735935 89.0978 3.67926L122.705 17.6C129.811 20.5433 135.457 26.1888 138.4 33.2946L152.321 66.9022C155.264 74.008 155.264 81.992 152.321 89.0978L138.4 122.705C135.457 129.811 129.811 135.457 122.705 138.4L89.0978 152.321C81.992 155.264 74.008 155.264 66.9022 152.321L33.2946 138.4C26.1888 135.457 20.5433 129.811 17.6 122.705L3.67926 89.0978C0.735933 81.992 0.735935 74.008 3.67926 66.9022L17.6 33.2946C20.5433 26.1888 26.1888 20.5433 33.2946 17.6L66.9022 3.67926Z" stroke="white" stroke-width="2"/>
</svg>
