<svg width="41" height="40" viewBox="0 0 41 40" fill="none" xmlns="http://www.w3.org/2000/svg">
<path d="M12.4964 7.5C10.7611 7.5 9.29324 8.29362 8.29224 9.42139C7.29124 10.5491 6.68211 11.9725 6.29024 13.4375C5.14874 17.7052 4.00599 21.9717 2.86499 26.2402C2.15424 28.8975 3.74224 31.6578 6.39774 32.3706C7.77949 32.7415 9.09149 32.265 9.98174 31.582C10.872 30.8991 11.5269 30.0674 12.201 29.3921L16.5564 25.0293H23.8342L28.1897 29.3921C28.8637 30.0674 29.5162 30.8991 30.4065 31.582C31.2967 32.265 32.6087 32.7415 33.9905 32.3706C36.646 31.6578 38.2365 28.8975 37.5256 26.2402C36.3834 21.9727 35.2419 17.7055 34.1004 13.4375C33.7085 11.9725 33.097 10.5491 32.096 9.42139C31.0949 8.29362 29.6271 7.5 27.8919 7.5H12.4964ZM14.5227 12.5415C15.2196 12.5528 15.773 13.1217 15.7605 13.811V15.044H16.9934C17.698 15.0339 18.273 15.6068 18.2605 16.3037C18.248 17.0006 17.6826 17.5503 16.9934 17.5415H15.7605V18.7744C15.7842 20.4646 13.2367 20.4646 13.2605 18.7744V17.5415H12.0276C10.3374 17.5654 10.3374 15.0201 12.0276 15.044H13.2605V13.811C13.248 13.1064 13.8259 12.5303 14.5227 12.5415ZM25.7971 12.5415C27.8534 12.5415 29.5471 14.2352 29.5471 16.2915C29.5471 18.3478 27.8534 20.0415 25.7971 20.0415C23.7409 20.0415 22.0471 18.3478 22.0471 16.2915C22.0471 14.2352 23.7409 12.5415 25.7971 12.5415Z" fill="white"/>
<path d="M25.7969 15.0415C26.502 15.0415 27.0469 15.5863 27.0469 16.2915C27.0469 16.9967 26.502 17.5415 25.7969 17.5415C25.0917 17.5415 24.5469 16.9967 24.5469 16.2915C24.5469 15.5863 25.0917 15.0415 25.7969 15.0415Z" fill="white"/>
</svg>
