<svg width="24" height="24" viewBox="0 0 24 24" fill="none" xmlns="http://www.w3.org/2000/svg">
<g clip-path="url(#clip0_13_275)">
<path d="M1.64991 10.3424C8.09234 7.47665 12.3883 5.58729 14.5378 4.67437C20.675 2.06806 21.9503 1.61529 22.7816 1.60024C22.9643 1.59711 23.3731 1.64335 23.6379 1.86267C23.8615 2.04794 23.9229 2.29818 23.9524 2.47375C23.9818 2.64941 24.0185 3.04948 23.9893 3.36203C23.6567 6.92991 22.2177 15.5883 21.4856 19.5844C21.1758 21.2753 20.5658 21.8422 19.9753 21.8977C18.692 22.0183 17.7174 21.0318 16.4744 20.1998C14.5293 18.8981 13.4306 18.0876 11.5425 16.8174C9.36065 15.3493 10.7751 14.5424 12.0186 13.2237C12.3439 12.8787 17.9984 7.6273 18.1079 7.15099C18.1216 7.09136 18.1343 6.86926 18.0051 6.75203C17.8759 6.6348 17.6852 6.67486 17.5475 6.70671C17.3525 6.75194 14.2452 8.8489 8.22582 12.9976C7.34382 13.6159 6.54499 13.9171 5.82923 13.9014C5.04019 13.884 3.52237 13.4459 2.394 13.0714C1.01003 12.612 -0.0899649 12.3692 0.00581367 11.5891C0.055706 11.1828 0.603719 10.7672 1.64991 10.3424Z" fill="white"/>
</g>
<defs>
<clipPath id="clip0_13_275">
<rect width="24" height="24" fill="white"/>
</clipPath>
</defs>
</svg>
