<svg width="24" height="24" viewBox="0 0 24 24" fill="none" xmlns="http://www.w3.org/2000/svg">
<g clip-path="url(#clip0_13_277)">
<path d="M24 4.70745C23.1172 5.09917 22.1691 5.36398 21.1722 5.48301C22.1896 4.87376 22.969 3.90831 23.337 2.75928C22.3706 3.3333 21.3129 3.73742 20.2098 3.95407C19.3122 2.99727 18.0322 2.3999 16.616 2.3999C13.8978 2.3999 11.6934 4.60348 11.6934 7.32328C11.6934 7.70864 11.7368 8.0846 11.8202 8.44556C7.72832 8.23992 4.1006 6.27986 1.67237 3.30154C1.24837 4.02893 1.00567 4.87465 1.00567 5.77699C1.00567 7.48488 1.87497 8.99177 3.19584 9.87447C2.41391 9.85024 1.64913 9.63918 0.965445 9.25893V9.32115C0.965445 11.7068 2.66228 13.696 4.91473 14.1484C4.50096 14.2618 4.06673 14.321 3.61749 14.321C3.29987 14.321 2.99172 14.291 2.69069 14.2344C3.31722 16.1897 5.1355 17.613 7.28932 17.6533C5.60431 18.9741 3.48112 19.7615 1.17509 19.7615C0.77791 19.7615 0.385365 19.7378 0 19.6914C2.17918 21.0887 4.7666 21.9044 7.54708 21.9044C16.6026 21.9044 21.5552 14.4023 21.5552 7.8963C21.5552 7.68271 21.5505 7.47071 21.5402 7.25947C22.5051 6.56155 23.338 5.69739 24 4.70745Z" fill="white"/>
</g>
<defs>
<clipPath id="clip0_13_277">
<rect width="24" height="24" fill="white"/>
</clipPath>
</defs>
</svg>
