<?xml version="1.0" standalone="no"?>
<!DOCTYPE svg PUBLIC "-//W3C//DTD SVG 20010904//EN"
 "http://www.w3.org/TR/2001/REC-SVG-20010904/DTD/svg10.dtd">
<svg version="1.0" xmlns="http://www.w3.org/2000/svg"
 width="512.000000pt" height="512.000000pt" viewBox="0 0 512.000000 512.000000"
 preserveAspectRatio="xMidYMid meet">
<metadata>
Created by potrace 1.14, written by Peter Selinger 2001-2017
</metadata>
<g transform="translate(0.000000,512.000000) scale(0.100000,-0.100000)"
fill="#000000" stroke="none">
<path d="M309 3913 c0 -5 -2 -17 -4 -28 -2 -11 -13 -87 -25 -170 -11 -82 -23
-161 -25 -175 -4 -28 -24 -169 -30 -215 -12 -97 -37 -274 -40 -296 -3 -15 -7
-47 -10 -70 -3 -24 -10 -69 -15 -99 -5 -30 -12 -80 -15 -110 -3 -30 -11 -84
-16 -120 -12 -74 -17 -106 -24 -170 -3 -25 -10 -72 -15 -105 -5 -33 -10 -71
-10 -85 l0 -25 255 0 c140 1 256 3 259 5 2 3 7 48 10 100 13 184 16 226 21
315 3 50 8 113 10 140 2 28 7 106 10 175 4 69 10 129 13 134 7 12 10 0 113
-402 l83 -323 221 3 220 3 18 90 c10 49 20 101 23 115 5 28 95 469 98 485 2 6
9 45 16 88 8 42 16 77 20 77 5 0 8 -204 14 -833 1 -107 5 -160 13 -165 6 -4
125 -7 265 -6 l253 0 -1 70 c-1 61 -7 166 -19 329 -2 28 -6 100 -9 160 -4 61
-8 133 -11 160 -2 28 -7 100 -10 160 -3 61 -7 135 -10 165 -2 30 -6 100 -10
155 -3 55 -8 129 -10 165 -5 83 -17 281 -18 298 0 9 -66 12 -296 12 l-296 -1
-130 -393 c-71 -217 -131 -393 -132 -392 -4 4 -114 379 -137 466 -8 30 -27 96
-41 145 -15 50 -31 104 -35 121 -4 18 -10 37 -14 43 -8 13 -525 16 -527 4z"/>
<path d="M2015 3723 c3 -109 7 -241 10 -293 2 -52 7 -196 10 -320 4 -124 8
-259 10 -300 2 -41 6 -181 10 -310 3 -129 10 -239 15 -244 8 -8 139 -8 627 -3
48 1 84 5 86 11 2 6 3 112 2 236 0 218 -1 225 -20 224 -26 -2 -146 -15 -165
-19 -8 -1 -48 -6 -87 -10 -82 -8 -84 -5 -68 80 2 11 4 36 4 55 l1 36 67 2 c37
1 69 4 71 7 7 7 11 49 16 190 l6 130 -96 -3 c-53 -2 -94 0 -91 5 3 4 11 63 18
131 l12 122 56 1 c31 0 75 1 99 1 23 0 44 3 46 7 5 7 12 126 22 326 3 65 7
122 10 127 3 4 -148 8 -336 8 l-341 0 6 -197z"/>
<path d="M2729 3918 c0 -2 -2 -112 -4 -246 l-3 -243 145 4 145 4 -6 -126 c-4
-69 -9 -153 -11 -186 -9 -149 -16 -268 -21 -365 -2 -58 -7 -134 -9 -170 -2
-36 -7 -123 -11 -195 -3 -71 -8 -133 -11 -137 -6 -10 -20 -10 294 -11 l271 -2
-3 50 c-8 115 -16 235 -20 315 -2 47 -7 110 -9 140 -3 30 -8 100 -11 155 -9
162 -21 352 -30 468 -4 49 -2 57 13 58 9 0 35 2 57 4 78 8 161 14 202 14 l41
1 6 63 c13 125 28 314 30 372 l1 30 -527 3 c-291 1 -528 1 -529 0z"/>
<path d="M4110 3913 c-19 -2 -80 -4 -135 -5 l-100 -3 -12 -65 c-6 -36 -14 -84
-18 -107 -3 -24 -8 -48 -10 -55 -2 -7 -7 -25 -9 -41 -3 -15 -10 -53 -15 -85
-6 -31 -13 -70 -15 -87 -3 -16 -19 -104 -35 -195 -17 -91 -32 -178 -35 -195
-3 -16 -8 -41 -11 -55 -3 -14 -8 -41 -11 -60 -3 -19 -7 -42 -9 -50 -2 -8 -7
-35 -10 -60 -6 -43 -20 -120 -65 -360 -20 -108 -25 -134 -35 -204 l-7 -41 239
1 c131 1 241 2 244 3 3 0 6 7 6 14 0 6 4 50 8 97 4 47 7 93 7 103 -1 13 8 17
36 18 20 0 86 1 147 2 l109 2 34 -120 34 -120 297 1 c163 1 297 2 298 3 2 0
-4 18 -12 39 -18 48 -77 208 -330 902 -113 311 -215 590 -226 620 -12 30 -26
67 -31 82 l-10 27 -142 -2 c-77 -1 -157 -3 -176 -4z m184 -829 c20 -55 36
-105 36 -110 0 -9 -117 -34 -159 -34 -18 0 -19 3 -6 58 7 31 23 106 35 165
l23 109 18 -44 c9 -24 33 -88 53 -144z"/>
<path d="M75 2210 c-1 -3 -6 -56 -10 -118 -4 -63 -8 -124 -10 -135 -2 -12 -6
-60 -9 -107 -3 -47 -8 -110 -11 -140 -3 -30 -7 -86 -9 -125 -3 -38 -8 -108
-12 -155 -4 -47 -8 -118 -8 -159 l-1 -75 165 -1 c91 0 172 2 181 6 12 6 15 21
13 61 -6 119 -7 258 -3 262 6 6 239 10 245 4 2 -3 5 -75 7 -161 2 -87 6 -159
8 -161 4 -4 271 -9 342 -7 30 1 30 -1 13 141 -8 65 -18 155 -22 199 -2 24 -6
60 -8 80 -3 20 -8 68 -11 106 -4 39 -8 77 -10 85 -2 8 -7 49 -10 90 -4 41 -9
89 -11 105 -2 17 -6 59 -9 95 -11 118 -4 110 -100 111 -47 1 -111 2 -142 2
l-58 2 -2 -180 c0 -99 -2 -187 -2 -196 -1 -13 -17 -18 -78 -23 -43 -4 -97 -9
-121 -11 l-43 -5 3 205 3 205 -50 1 c-27 1 -90 2 -138 3 -49 1 -90 -1 -92 -4z"/>
<path d="M968 2160 c-6 -81 -1 -519 6 -560 5 -29 15 -77 21 -100 1 -3 5 -18
10 -35 26 -98 98 -187 183 -228 178 -86 390 -27 494 138 25 40 72 155 63 155
-2 0 0 11 5 24 22 59 30 293 17 517 -3 63 -9 122 -12 130 -4 12 -23 15 -88 13
-45 -1 -122 -2 -170 -3 l-89 -1 6 -37 c3 -21 7 -47 10 -59 2 -12 7 -45 11 -75
4 -30 8 -56 10 -59 7 -11 19 -209 17 -273 -3 -93 -20 -132 -67 -147 -33 -11
-40 -10 -64 7 -42 32 -51 73 -46 228 3 77 6 152 9 167 2 16 7 47 11 70 13 85
15 94 23 138 l9 46 -183 0 -182 0 -4 -56z"/>
<path d="M1819 2180 c0 -19 -2 -55 -4 -80 -1 -25 -5 -126 -9 -225 -4 -99 -9
-211 -11 -250 -2 -38 -7 -140 -10 -225 -4 -85 -8 -156 -10 -159 -2 -2 0 -11 4
-20 8 -14 34 -17 170 -19 l161 -3 -4 225 c-2 125 -2 226 -1 226 2 0 24 -51 50
-112 26 -62 58 -137 71 -166 13 -29 24 -55 24 -58 0 -3 11 -30 25 -60 16 -35
31 -54 42 -55 10 0 77 1 148 2 72 1 147 1 167 1 21 0 36 3 34 7 -3 4 -7 70
-11 147 -6 140 -10 231 -20 400 -2 50 -7 147 -10 215 -7 150 -12 230 -17 235
-2 2 -71 5 -153 6 l-150 3 3 -67 c2 -36 5 -86 7 -110 2 -23 7 -99 11 -168 3
-69 9 -129 12 -135 3 -7 1 -7 -6 0 -6 6 -29 52 -51 102 -22 51 -54 121 -69
155 -16 35 -42 92 -57 128 -16 36 -33 70 -39 77 -7 8 -61 13 -153 15 l-143 4
-1 -36z"/>
<path d="M2645 2151 c8 -108 16 -195 19 -216 3 -18 12 -21 91 -25 l89 -5 -3
-120 c-2 -66 -4 -160 -6 -210 -6 -169 -7 -366 -3 -371 6 -6 35 -6 201 -4 168
2 154 -9 137 110 -5 36 -12 85 -15 110 -9 74 -15 123 -20 150 -2 14 -7 45 -10
70 -3 25 -8 52 -10 60 -6 24 -19 141 -19 185 l-1 40 89 -2 88 -2 -6 67 c-3 37
-8 101 -12 142 -3 41 -7 76 -8 77 -1 1 -138 4 -304 6 l-302 4 5 -66z"/>
<path d="M3295 2045 c5 -160 8 -223 20 -505 10 -213 17 -335 20 -338 3 -3 83
-3 337 0 l87 1 -3 86 c-2 47 -5 109 -5 138 l-1 51 -47 -3 c-27 -2 -68 -5 -93
-6 l-45 -4 -2 52 -1 52 41 6 42 7 -2 84 c0 47 -3 88 -6 91 -3 3 -27 6 -54 7
-53 1 -51 -5 -40 95 3 29 8 55 10 57 2 2 26 6 53 9 118 12 114 10 115 68 0 29
3 89 5 135 5 74 4 82 -13 83 -10 1 -109 2 -221 3 l-203 2 6 -171z"/>
<path d="M3754 2211 c4 -6 8 -122 22 -636 3 -104 6 -230 8 -280 l3 -90 153 -1
152 0 -6 70 c-3 39 -8 100 -11 136 l-5 65 16 -35 c81 -179 99 -216 106 -226 5
-7 69 -11 178 -13 l171 -2 -125 186 -126 187 64 61 c35 34 76 87 92 117 24 48
28 66 28 141 0 69 -5 94 -24 134 -47 98 -130 152 -265 174 -76 12 -437 23
-431 12z m393 -336 c25 -19 9 -57 -39 -87 -63 -41 -70 -38 -67 30 1 31 4 60 6
64 6 12 82 6 100 -7z"/>
<path d="M4818 2215 c-2 -1 -28 -5 -59 -8 -176 -16 -281 -158 -247 -334 15
-77 110 -175 224 -232 87 -44 114 -67 108 -94 -8 -46 -27 -52 -154 -50 l-120
2 -1 -57 c0 -31 -2 -97 -3 -145 -1 -48 2 -91 7 -94 11 -7 274 -6 307 1 163 36
240 132 240 302 0 129 -55 220 -171 286 -33 18 -59 53 -59 78 0 24 34 40 86
40 44 0 54 3 55 18 7 143 7 272 0 276 -9 6 -207 16 -213 11z"/>
</g>
</svg>
